<svg width="414" height="49" viewBox="0 0 414 49" fill="none" xmlns="http://www.w3.org/2000/svg">
<path fill-rule="evenodd" clip-rule="evenodd" d="M33.1729 24.4323C33.1729 22.2231 34.9639 20.4322 37.1731 20.4322H40.0795C42.2887 20.4322 44.0797 22.2231 44.0797 24.4323C44.0797 26.6416 42.2887 28.4325 40.0795 28.4325H37.1731C34.9639 28.4325 33.1729 26.6416 33.1729 24.4323ZM61.2679 24.4323C61.2679 22.2231 63.0588 20.4322 65.2681 20.4322H71.0808C73.29 20.4322 75.081 22.2231 75.081 24.4323C75.081 26.6416 73.29 28.4325 71.0808 28.4325H65.2681C63.0588 28.4325 61.2679 26.6416 61.2679 24.4323ZM92.2692 24.4323C92.2692 22.2231 94.0601 20.4322 96.2694 20.4322H102.082C104.291 20.4322 106.082 22.2231 106.082 24.4323C106.082 26.6416 104.291 28.4325 102.082 28.4325H96.2694C94.0601 28.4325 92.2692 26.6416 92.2692 24.4323ZM123.271 24.4323C123.271 22.2231 125.061 20.4322 127.271 20.4322H133.083C135.293 20.4322 137.084 22.2231 137.084 24.4323C137.084 26.6416 135.293 28.4325 133.083 28.4325H127.271C125.061 28.4325 123.271 26.6416 123.271 24.4323ZM154.272 24.4323C154.272 22.2231 156.063 20.4322 158.272 20.4322H164.085C166.294 20.4322 168.085 22.2231 168.085 24.4323C168.085 26.6416 166.294 28.4325 164.085 28.4325H158.272C156.063 28.4325 154.272 26.6416 154.272 24.4323ZM185.273 24.4323C185.273 22.2231 187.064 20.4322 189.273 20.4322H195.086C197.295 20.4322 199.086 22.2231 199.086 24.4323C199.086 26.6416 197.295 28.4325 195.086 28.4325H189.273C187.064 28.4325 185.273 26.6416 185.273 24.4323ZM216.274 24.4323C216.274 22.2231 218.065 20.4322 220.275 20.4322H226.087C228.297 20.4322 230.088 22.2231 230.088 24.4323C230.088 26.6416 228.297 28.4325 226.087 28.4325H220.275C218.065 28.4325 216.274 26.6416 216.274 24.4323ZM247.276 24.4323C247.276 22.2231 249.067 20.4322 251.276 20.4322H257.089C259.298 20.4322 261.089 22.2231 261.089 24.4323C261.089 26.6416 259.298 28.4325 257.089 28.4325H251.276C249.067 28.4325 247.276 26.6416 247.276 24.4323ZM278.277 24.4323C278.277 22.2231 280.068 20.4322 282.277 20.4322H288.09C290.299 20.4322 292.09 22.2231 292.09 24.4323C292.09 26.6416 290.299 28.4325 288.09 28.4325H282.277C280.068 28.4325 278.277 26.6416 278.277 24.4323ZM309.278 24.4323C309.278 22.2231 311.069 20.4322 313.279 20.4322H319.091C321.301 20.4322 323.091 22.2231 323.091 24.4323C323.091 26.6416 321.301 28.4325 319.091 28.4325H313.279C311.069 28.4325 309.278 26.6416 309.278 24.4323ZM340.28 24.4323C340.28 22.2231 342.071 20.4322 344.28 20.4322H350.093C352.302 20.4322 354.093 22.2231 354.093 24.4323C354.093 26.6416 352.302 28.4325 350.093 28.4325H344.28C342.071 28.4325 340.28 26.6416 340.28 24.4323ZM371.281 24.4323C371.281 22.2231 373.072 20.4322 375.281 20.4322H381.094C383.303 20.4322 385.094 22.2231 385.094 24.4323C385.094 26.6416 383.303 28.4325 381.094 28.4325H375.281C373.072 28.4325 371.281 26.6416 371.281 24.4323ZM402.282 24.4323C402.282 22.2231 404.073 20.4322 406.283 20.4322H409.189C411.398 20.4322 413.189 22.2231 413.189 24.4323C413.189 26.6416 411.398 28.4325 409.189 28.4325H406.283C404.073 28.4325 402.282 26.6416 402.282 24.4323Z" fill="#2986AD"/>
<path fill-rule="evenodd" clip-rule="evenodd" d="M2.00005 27.457C3.56222 29.0191 6.09498 29.0191 7.65715 27.457L27.457 7.65715C29.0191 6.09498 29.0191 3.56222 27.457 2.00005C25.8948 0.43789 23.362 0.437888 21.7999 2.00005L2.00005 21.7999C0.437889 23.362 0.437889 25.8948 2.00005 27.457Z" fill="#2986AD"/>
<path fill-rule="evenodd" clip-rule="evenodd" d="M2.00005 21.7999C3.56222 20.2377 6.09498 20.2377 7.65715 21.7999L27.457 41.5997C29.0191 43.1619 29.0191 45.6946 27.457 47.2568C25.8948 48.819 23.362 48.819 21.7999 47.2568L2.00005 27.457C0.437889 25.8948 0.437889 23.362 2.00005 21.7999Z" fill="#2986AD"/>
</svg>
