<svg width="318" height="389" viewBox="0 0 318 389" fill="none" xmlns="http://www.w3.org/2000/svg">
<path fill-rule="evenodd" clip-rule="evenodd" d="M0 385.001C0 387.209 1.79058 389 3.99937 389H4.97027C7.17907 389 8.96965 387.209 8.96965 385.001C8.96965 382.792 7.17907 381.001 4.97027 381.001H3.99937C1.79058 381.001 0 382.792 0 385.001ZM9.38538 385.001C9.38538 387.209 11.176 389 13.3848 389H14.3557C15.4432 389 16.5221 388.96 17.5911 388.883C19.7941 388.722 21.45 386.806 21.2896 384.603C21.1293 382.401 19.2134 380.745 17.0105 380.905C16.1345 380.969 15.2492 381.001 14.3557 381.001H13.3848C11.176 381.001 9.38538 382.792 9.38538 385.001ZM37.4515 377.905C38.895 379.577 41.4205 379.762 43.0923 378.318C44.7267 376.907 46.2561 375.378 47.6671 373.744C49.1106 372.072 48.9254 369.546 47.2535 368.103C45.5816 366.659 43.0561 366.844 41.6127 368.516C40.4568 369.855 39.2039 371.108 37.8651 372.264C36.1932 373.707 36.0081 376.233 37.4515 377.905ZM53.9523 351.941C56.1552 352.101 58.0711 350.445 58.2314 348.242C58.3092 347.173 58.3488 346.094 58.3488 345.007V341.882C58.3488 339.674 56.5582 337.883 54.3494 337.883C52.1406 337.883 50.35 339.674 50.35 341.882V345.007C50.35 345.9 50.3175 346.786 50.2538 347.662C50.0934 349.865 51.7493 351.781 53.9523 351.941ZM54.3494 318.803C56.5582 318.803 58.3488 317.012 58.3488 314.803V308.554C58.3488 306.345 56.5582 304.555 54.3494 304.555C52.1406 304.555 50.35 306.345 50.35 308.554V314.803C50.35 317.012 52.1406 318.803 54.3494 318.803ZM54.3494 285.475C56.5582 285.475 58.3488 283.684 58.3488 281.475V275.226C58.3488 273.017 56.5582 271.227 54.3494 271.227C52.1406 271.227 50.35 273.017 50.35 275.226V281.475C50.35 283.684 52.1406 285.475 54.3494 285.475ZM54.3494 252.146C56.5582 252.146 58.3488 250.356 58.3488 248.147V241.898C58.3488 239.689 56.5582 237.899 54.3494 237.899C52.1406 237.899 50.35 239.689 50.35 241.898V248.147C50.35 250.356 52.1406 252.146 54.3494 252.146ZM54.3494 218.818C56.5582 218.818 58.3488 217.028 58.3488 214.819V208.57C58.3488 206.361 56.5582 204.571 54.3494 204.571C52.1406 204.571 50.35 206.361 50.35 208.57V214.819C50.35 217.028 52.1406 218.818 54.3494 218.818ZM54.3494 185.49C56.5582 185.49 58.3488 183.7 58.3488 181.491V175.242C58.3488 173.033 56.5582 171.242 54.3494 171.242C52.1406 171.242 50.35 173.033 50.35 175.242V181.491C50.35 183.7 52.1406 185.49 54.3494 185.49ZM54.3494 152.162C56.5582 152.162 58.3488 150.371 58.3488 148.163V141.914C58.3488 139.705 56.5582 137.914 54.3494 137.914C52.1406 137.914 50.35 139.705 50.35 141.914V148.163C50.35 150.371 52.1406 152.162 54.3494 152.162ZM54.3494 118.834C56.5582 118.834 58.3488 117.043 58.3488 114.835V108.586C58.3488 106.377 56.5582 104.586 54.3494 104.586C52.1406 104.586 50.35 106.377 50.35 108.586V114.835C50.35 117.043 52.1406 118.834 54.3494 118.834ZM54.3494 85.5059C56.5582 85.5059 58.3488 83.7153 58.3488 81.5065V75.2575C58.3488 73.0487 56.5582 71.2581 54.3494 71.2581C52.1406 71.2581 50.35 73.0487 50.35 75.2575V81.5065C50.35 83.7153 52.1406 85.5059 54.3494 85.5059ZM54.3494 52.1777C56.5582 52.1777 58.3488 50.3872 58.3488 48.1784V45.0539C58.3488 44.1603 58.3812 43.275 58.445 42.399C58.6053 40.1961 56.9495 38.2802 54.7465 38.1199C52.5435 37.9595 50.6277 39.6154 50.4674 41.8184C50.3895 42.8874 50.35 43.9663 50.35 45.0539V48.1784C50.35 50.3872 52.1406 52.1777 54.3494 52.1777ZM61.4453 21.958C63.1171 23.4015 65.6426 23.2163 67.0861 21.5444C68.242 20.2056 69.4948 18.9527 70.8336 17.7968C72.5055 16.3534 72.6907 13.8279 71.2473 12.156C69.8038 10.4841 67.2783 10.2989 65.6064 11.7424C63.972 13.1535 62.4427 14.6828 61.0316 16.3172C59.5882 17.9891 59.7734 20.5146 61.4453 21.958ZM87.4091 5.45725C87.5695 7.66021 89.4853 9.31608 91.6883 9.15573C92.5642 9.09199 93.4495 9.0595 94.3431 9.0595H97.2348C99.4436 9.0595 101.234 7.26891 101.234 5.06012C101.234 2.85133 99.4436 1.06075 97.2348 1.06075H94.3431C93.2556 1.06075 92.1766 1.10029 91.1076 1.1781C88.9047 1.33845 87.2488 3.25428 87.4091 5.45725ZM118.296 5.06012C118.296 7.26891 120.087 9.0595 122.296 9.0595H128.079C130.288 9.0595 132.078 7.26891 132.078 5.06012C132.078 2.85133 130.288 1.06075 128.079 1.06075H122.296C120.087 1.06075 118.296 2.85133 118.296 5.06012ZM149.141 5.06012C149.141 7.26891 150.931 9.0595 153.14 9.0595H158.923C161.132 9.0595 162.923 7.26891 162.923 5.06012C162.923 2.85133 161.132 1.06075 158.923 1.06075H153.14C150.931 1.06075 149.141 2.85133 149.141 5.06012ZM179.985 5.06012C179.985 7.26891 181.776 9.0595 183.984 9.0595H189.768C191.976 9.0595 193.767 7.26891 193.767 5.06012C193.767 2.85133 191.976 1.06075 189.768 1.06075H183.984C181.776 1.06075 179.985 2.85133 179.985 5.06012ZM210.829 5.06012C210.829 7.26891 212.62 9.0595 214.829 9.0595H220.612C222.821 9.0595 224.611 7.26891 224.611 5.06012C224.611 2.85133 222.821 1.06075 220.612 1.06075H214.829C212.62 1.06075 210.829 2.85133 210.829 5.06012ZM241.674 5.06012C241.674 7.26891 243.464 9.0595 245.673 9.0595H251.456C253.665 9.0595 255.456 7.26891 255.456 5.06012C255.456 2.85133 253.665 1.06075 251.456 1.06075H245.673C243.464 1.06075 241.674 2.85133 241.674 5.06012ZM272.518 5.06012C272.518 7.26891 274.308 9.0595 276.517 9.0595H282.301C284.509 9.0595 286.3 7.26891 286.3 5.06012C286.3 2.85133 284.509 1.06075 282.301 1.06075H276.517C274.308 1.06075 272.518 2.85133 272.518 5.06012ZM303.362 5.06012C303.362 7.26891 305.153 9.0595 307.361 9.0595H313.145C315.354 9.0595 317.144 7.26891 317.144 5.06012C317.144 2.85133 315.354 1.06075 313.145 1.06075H307.361C305.153 1.06075 303.362 2.85133 303.362 5.06012Z" fill="#2986AD"/>
<path fill-rule="evenodd" clip-rule="evenodd" d="M1.99969 4.79503C1.99969 7.00382 3.79027 8.7944 5.99906 8.7944H8.71738C10.9262 8.7944 12.7168 7.00382 12.7168 4.79503C12.7168 2.58623 10.9262 0.795654 8.71738 0.795654H5.99906C3.79027 0.795654 1.99969 2.58623 1.99969 4.79503ZM28.2768 4.79503C28.2768 7.00382 30.0674 8.7944 32.2762 8.7944H37.7128C39.9216 8.7944 41.7122 7.00382 41.7122 4.79503C41.7122 2.58623 39.9216 0.795654 37.7128 0.795654H32.2762C30.0674 0.795654 28.2768 2.58623 28.2768 4.79503ZM57.2723 4.79503C57.2723 7.00382 59.0629 8.7944 61.2717 8.7944H63.99C66.1988 8.7944 67.9893 7.00382 67.9893 4.79503C67.9893 2.58623 66.1988 0.795654 63.99 0.795654H61.2717C59.0629 0.795654 57.2723 2.58623 57.2723 4.79503Z" fill="#2986AD"/>
</svg>
