<svg width="411" height="408" viewBox="0 0 411 408" fill="none" xmlns="http://www.w3.org/2000/svg">
<path fill-rule="evenodd" clip-rule="evenodd" d="M0 404.001C0 406.209 1.79058 408 3.99937 408H4.97027C7.17907 408 8.96965 406.209 8.96965 404.001C8.96965 401.792 7.17907 400.001 4.97027 400.001H3.99937C1.79058 400.001 0 401.792 0 404.001ZM9.38538 404.001C9.38538 406.209 11.176 408 13.3848 408H14.3557C15.4432 408 16.5221 407.96 17.5911 407.883C19.7941 407.722 21.45 405.806 21.2896 403.604C21.1293 401.401 19.2134 399.745 17.0105 399.905C16.1345 399.969 15.2492 400.001 14.3557 400.001H13.3848C11.176 400.001 9.38538 401.792 9.38538 404.001ZM37.4515 396.905C38.895 398.577 41.4205 398.762 43.0923 397.318C44.7267 395.907 46.2561 394.378 47.6671 392.744C49.1106 391.072 48.9254 388.546 47.2535 387.103C45.5816 385.659 43.0561 385.845 41.6127 387.516C40.4568 388.855 39.2039 390.108 37.8651 391.264C36.1932 392.707 36.0081 395.233 37.4515 396.905ZM53.9523 370.941C56.1552 371.101 58.0711 369.445 58.2314 367.242C58.3092 366.173 58.3488 365.094 58.3488 364.007V360.882C58.3488 358.674 56.5582 356.883 54.3494 356.883C52.1406 356.883 50.35 358.674 50.35 360.882V364.007C50.35 364.9 50.3175 365.786 50.2538 366.662C50.0934 368.865 51.7493 370.781 53.9523 370.941ZM54.3494 337.803C56.5582 337.803 58.3488 336.012 58.3488 333.803V327.554C58.3488 325.346 56.5582 323.555 54.3494 323.555C52.1406 323.555 50.35 325.346 50.35 327.554V333.803C50.35 336.012 52.1406 337.803 54.3494 337.803ZM54.3494 304.475C56.5582 304.475 58.3488 302.684 58.3488 300.475V294.226C58.3488 292.017 56.5582 290.227 54.3494 290.227C52.1406 290.227 50.35 292.017 50.35 294.226V300.475C50.35 302.684 52.1406 304.475 54.3494 304.475ZM54.3494 271.146C56.5582 271.146 58.3488 269.356 58.3488 267.147V260.898C58.3488 258.689 56.5582 256.899 54.3494 256.899C52.1406 256.899 50.35 258.689 50.35 260.898V267.147C50.35 269.356 52.1406 271.146 54.3494 271.146ZM54.3494 237.818C56.5582 237.818 58.3488 236.028 58.3488 233.819V227.57C58.3488 225.361 56.5582 223.571 54.3494 223.571C52.1406 223.571 50.35 225.361 50.35 227.57V233.819C50.35 236.028 52.1406 237.818 54.3494 237.818ZM54.3494 204.49C56.5582 204.49 58.3488 202.7 58.3488 200.491V194.242C58.3488 192.033 56.5582 190.242 54.3494 190.242C52.1406 190.242 50.35 192.033 50.35 194.242V200.491C50.35 202.7 52.1406 204.49 54.3494 204.49ZM54.3494 171.162C56.5582 171.162 58.3488 169.372 58.3488 167.163V160.914C58.3488 158.705 56.5582 156.914 54.3494 156.914C52.1406 156.914 50.35 158.705 50.35 160.914V167.163C50.35 169.372 52.1406 171.162 54.3494 171.162ZM54.3494 137.834C56.5582 137.834 58.3488 136.043 58.3488 133.835V127.586C58.3488 125.377 56.5582 123.586 54.3494 123.586C52.1406 123.586 50.35 125.377 50.35 127.586V133.835C50.35 136.043 52.1406 137.834 54.3494 137.834ZM54.3494 104.506C56.5582 104.506 58.3488 102.715 58.3488 100.507V94.2575C58.3488 92.0487 56.5582 90.2581 54.3494 90.2581C52.1406 90.2581 50.35 92.0487 50.35 94.2575V100.507C50.35 102.715 52.1406 104.506 54.3494 104.506ZM54.3494 71.1778C56.5582 71.1778 58.3488 69.3872 58.3488 67.1784V64.0539C58.3488 63.1603 58.3812 62.275 58.445 61.3991C58.6053 59.1961 56.9495 57.2803 54.7465 57.1199C52.5435 56.9596 50.6277 58.6154 50.4674 60.8184C50.3895 61.8874 50.35 62.9664 50.35 64.0539V67.1784C50.35 69.3872 52.1406 71.1778 54.3494 71.1778ZM61.4453 40.958C63.1171 42.4015 65.6426 42.2163 67.0861 40.5444C68.242 39.2056 69.4948 37.9527 70.8336 36.7969C72.5055 35.3534 72.6907 32.8279 71.2473 31.156C69.8038 29.4841 67.2783 29.299 65.6064 30.7424C63.972 32.1535 62.4427 33.6828 61.0316 35.3172C59.5882 36.9891 59.7734 39.5146 61.4453 40.958ZM87.4091 24.4573C87.5695 26.6602 89.4853 28.3161 91.6883 28.1558C92.5642 28.092 93.4495 28.0595 94.3431 28.0595H97.2348C99.4436 28.0595 101.234 26.2689 101.234 24.0601C101.234 21.8514 99.4436 20.0608 97.2348 20.0608H94.3431C93.2556 20.0608 92.1766 20.1003 91.1076 20.1781C88.9047 20.3385 87.2488 22.2543 87.4091 24.4573ZM118.296 24.0601C118.296 26.2689 120.087 28.0595 122.296 28.0595H128.079C130.288 28.0595 132.078 26.2689 132.078 24.0601C132.078 21.8514 130.288 20.0608 128.079 20.0608H122.296C120.087 20.0608 118.296 21.8514 118.296 24.0601ZM149.141 24.0601C149.141 26.2689 150.931 28.0595 153.14 28.0595H158.923C161.132 28.0595 162.923 26.2689 162.923 24.0601C162.923 21.8514 161.132 20.0608 158.923 20.0608H153.14C150.931 20.0608 149.141 21.8514 149.141 24.0601ZM179.985 24.0601C179.985 26.2689 181.776 28.0595 183.984 28.0595H189.768C191.976 28.0595 193.767 26.2689 193.767 24.0601C193.767 21.8514 191.976 20.0608 189.768 20.0608H183.984C181.776 20.0608 179.985 21.8514 179.985 24.0601ZM210.829 24.0601C210.829 26.2689 212.62 28.0595 214.829 28.0595H220.612C222.821 28.0595 224.611 26.2689 224.611 24.0601C224.611 21.8514 222.821 20.0608 220.612 20.0608H214.829C212.62 20.0608 210.829 21.8514 210.829 24.0601ZM241.674 24.0601C241.674 26.2689 243.464 28.0595 245.673 28.0595H251.456C253.665 28.0595 255.456 26.2689 255.456 24.0601C255.456 21.8514 253.665 20.0608 251.456 20.0608H245.673C243.464 20.0608 241.674 21.8514 241.674 24.0601ZM272.518 24.0601C272.518 26.2689 274.308 28.0595 276.517 28.0595H282.3C284.509 28.0595 286.3 26.2689 286.3 24.0601C286.3 21.8514 284.509 20.0608 282.3 20.0608H276.517C274.308 20.0608 272.518 21.8514 272.518 24.0601ZM303.362 24.0601C303.362 26.2689 305.153 28.0595 307.361 28.0595H313.145C315.354 28.0595 317.144 26.2689 317.144 24.0601C317.144 21.8514 315.354 20.0608 313.145 20.0608H307.361C305.153 20.0608 303.362 21.8514 303.362 24.0601ZM334.206 24.0601C334.206 26.2689 335.997 28.0595 338.206 28.0595H343.989C346.198 28.0595 347.988 26.2689 347.988 24.0601C347.988 21.8514 346.198 20.0608 343.989 20.0608H338.206C335.997 20.0608 334.206 21.8514 334.206 24.0601ZM365.051 24.0601C365.051 26.2689 366.841 28.0595 369.05 28.0595H371.942C374.151 28.0595 375.941 26.2689 375.941 24.0601C375.941 21.8514 374.151 20.0608 371.942 20.0608H369.05C366.841 20.0608 365.051 21.8514 365.051 24.0601Z" fill="#2986AD"/>
<path fill-rule="evenodd" clip-rule="evenodd" d="M1.99969 23.7951C1.99969 26.0038 3.79027 27.7944 5.99906 27.7944H8.71738C10.9262 27.7944 12.7168 26.0038 12.7168 23.7951C12.7168 21.5863 10.9262 19.7957 8.71738 19.7957H5.99906C3.79027 19.7957 1.99969 21.5863 1.99969 23.7951ZM28.2768 23.7951C28.2768 26.0038 30.0674 27.7944 32.2762 27.7944H37.7128C39.9216 27.7944 41.7122 26.0038 41.7122 23.7951C41.7122 21.5863 39.9216 19.7957 37.7128 19.7957H32.2762C30.0674 19.7957 28.2768 21.5863 28.2768 23.7951ZM57.2723 23.7951C57.2723 26.0038 59.0629 27.7944 61.2717 27.7944H63.99C66.1988 27.7944 67.9893 26.0038 67.9893 23.7951C67.9893 21.5863 66.1988 19.7957 63.99 19.7957H61.2717C59.0629 19.7957 57.2723 21.5863 57.2723 23.7951Z" fill="#2986AD"/>
<path fill-rule="evenodd" clip-rule="evenodd" d="M409.107 20.9673C407.545 19.4054 405.013 19.4054 403.451 20.9673L383.655 40.7632C382.094 42.325 382.094 44.8573 383.655 46.4191C385.217 47.981 387.75 47.981 389.311 46.4191L409.107 26.6232C410.669 25.0614 410.669 22.5291 409.107 20.9673Z" fill="#2986AD"/>
<path fill-rule="evenodd" clip-rule="evenodd" d="M409.107 26.6232C407.545 28.1851 405.013 28.1851 403.451 26.6232L383.655 6.82736C382.094 5.2655 382.094 2.73324 383.655 1.17139C385.217 -0.390463 387.75 -0.390464 389.311 1.17139L409.107 20.9673C410.669 22.5291 410.669 25.0614 409.107 26.6232Z" fill="#2986AD"/>
</svg>
