<svg width="36" height="27" viewBox="0 0 36 27" fill="none" xmlns="http://www.w3.org/2000/svg">
<path d="M2.45448 26.9992H8.182V13.0897L0 6.95346V24.5447C0 25.1957 0.258596 25.82 0.7189 26.2803C1.1792 26.7406 1.80351 26.9992 2.45448 26.9992Z" fill="#4285F4"/>
<path d="M27.8181 26.9992H33.5456C34.1966 26.9992 34.8209 26.7406 35.2812 26.2803C35.7415 25.82 36.0001 25.1957 36.0001 24.5447V6.95346L27.8181 13.0897V26.9992Z" fill="#34A853"/>
<path d="M27.8181 2.45448V13.0897L36.0001 6.95353V3.68172C36.0001 2.99798 35.8097 2.32775 35.4503 1.74612C35.0908 1.1645 34.5765 0.694468 33.9649 0.388691C33.3534 0.0829136 32.6687 -0.0465251 31.9878 0.0148784C31.3068 0.0762819 30.6564 0.326102 30.1094 0.736345L27.8181 2.45448Z" fill="#FBBC04"/>
<path fill-rule="evenodd" clip-rule="evenodd" d="M8.18164 13.0896V2.45435L17.9995 9.81778L27.8175 2.45435V13.0896L17.9995 20.453L8.18164 13.0896Z" fill="#EA4335"/>
<path d="M0 3.68172V6.95353L8.182 13.0897V2.45448L5.89074 0.736345C5.34375 0.326102 4.69333 0.0762819 4.01235 0.0148784C3.33138 -0.0465251 2.64676 0.0829136 2.0352 0.388691C1.42365 0.694468 0.909324 1.1645 0.549861 1.74612C0.190399 2.32775 0 2.99798 0 3.68172H0Z" fill="#C5221F"/>
</svg>
