<svg width="30" height="40" viewBox="0 0 30 40" fill="none" xmlns="http://www.w3.org/2000/svg">
<path d="M29.4854 10.9559V37.4231C29.4854 38.8465 28.3309 39.9999 26.9086 39.9999H3.09169C1.66833 39.9999 0.514893 38.8465 0.514893 37.4231V2.5768C0.514814 1.15344 1.66825 0 3.09169 0H18.5296L29.4854 10.9559Z" fill="#28B446"/>
<path d="M20.0242 10.7179L29.4853 14.6156V10.9559L24.1211 9.3721L20.0242 10.7179Z" fill="#219B38"/>
<path d="M29.4854 10.9559H21.1063C19.6829 10.9559 18.5295 9.80242 18.5295 8.37906V0L29.4854 10.9559Z" fill="#6ACE7C"/>
<path d="M21.3372 19.9176H8.66224C8.20755 19.9176 7.83911 20.2861 7.83911 20.7408V31.7696C7.83911 32.2241 8.20755 32.5927 8.66224 32.5927H21.3372C21.7918 32.5927 22.1603 32.2242 22.1603 31.7696V20.7408C22.1603 20.2862 21.7918 19.9176 21.3372 19.9176ZM9.48536 25.2095H14.1766V27.3011H9.48536V25.2095ZM15.8228 25.2095H20.514V27.3011H15.8228V25.2095ZM20.5141 23.5633H15.8229V21.5639H20.5141V23.5633ZM14.1766 21.5639V23.5633H9.48536V21.5639H14.1766ZM9.48536 28.9473H14.1766V30.9467H9.48536V28.9473ZM15.8228 30.9466V28.9472H20.514V30.9466H15.8228Z" fill="white"/>
</svg>
