<svg width="86" height="50" viewBox="0 0 86 50" fill="none" xmlns="http://www.w3.org/2000/svg">
<path d="M85.349 24.5609L25.7585 24.5609L35.6597 32.2619L85.349 24.5609Z" fill="#8E8683"/>
<path d="M35.6597 32.2619L85.349 24.5609L38.7207 48.8214C37.3265 49.5468 35.6597 48.5352 35.6597 46.9635L35.6597 32.2619Z" fill="url(#paint0_linear)"/>
<path d="M85.349 24.5609L25.7585 24.5609L35.6597 16.86L85.349 24.5609Z" fill="#7A726E"/>
<path d="M35.6597 16.86L85.349 24.5609L38.7207 0.300468C37.3265 -0.424961 35.6597 0.586717 35.6597 2.15841L35.6597 16.86Z" fill="url(#paint1_linear)"/>
<path fill-rule="evenodd" clip-rule="evenodd" d="M27.4088 17.3051C27.4088 17.6521 27.1275 17.9334 26.7805 17.9334L8.60145 17.9334C8.25444 17.9334 7.97314 17.6521 7.97314 17.3051C7.97314 16.9581 8.25444 16.6768 8.60145 16.6768L26.7805 16.6768C27.1275 16.6768 27.4088 16.9581 27.4088 17.3051Z" fill="#DEDCDB"/>
<path fill-rule="evenodd" clip-rule="evenodd" d="M20.0743 25.006C20.0743 25.353 19.793 25.6343 19.446 25.6343L1.26698 25.6343C0.919969 25.6343 0.638664 25.353 0.638664 25.006C0.638664 24.659 0.919969 24.3777 1.26698 24.3777L19.446 24.3777C19.793 24.3777 20.0743 24.659 20.0743 25.006Z" fill="#DEDCDB"/>
<path fill-rule="evenodd" clip-rule="evenodd" d="M27.4088 31.9735C27.4088 32.3205 27.1275 32.6018 26.7805 32.6018L8.60145 32.6018C8.25444 32.6018 7.97314 32.3205 7.97314 31.9735C7.97314 31.6265 8.25444 31.3452 8.60145 31.3452L26.7805 31.3452C27.1275 31.3452 27.4088 31.6265 27.4088 31.9735Z" fill="#DEDCDB"/>
<defs>
<linearGradient id="paint0_linear" x1="35.0068" y1="32.4659" x2="40.8985" y2="58.9786" gradientUnits="userSpaceOnUse">
<stop stop-color="#A9A09C"/>
<stop offset="0.546875" stop-color="#938A85"/>
</linearGradient>
<linearGradient id="paint1_linear" x1="35.9887" y1="0.061585" x2="33.0429" y2="23.6284" gradientUnits="userSpaceOnUse">
<stop stop-color="#C5C1BF"/>
<stop offset="0.510417" stop-color="#938A85"/>
</linearGradient>
</defs>
</svg>
